#!OML:ASF Y:\EmotionMaleHayes\Project 1\Capture day 1\Session 1\Male1.ASF
:FULLY-SPECIFIED
:DEGREES
190
root 0.332255 17.2281 0.122504 449.924 78.0376 446.503
lowerback 11.0613 0.182317 -16.2054
upperback 6.02862 -0.839499 -4.18322
thorax 0.532228 -0.540125 4.68931
lowerneck -24.3507 2.23971 2.9048
upperneck 29.2424 2.2646 0.451744
head 14.1073 1.48819 0.149646
rclavicle 1.5704e-014 6.2816e-014
rhumerus -65.6866 29.8217 -97.5349
rradius 58.2838
rwrist -27.8977
rhand -31.8317 -34.8335
rfingers 7.12502
rthumb -5.08626 -64.7525
lclavicle 1.5704e-014 6.2816e-014
lhumerus -12.6475 -31.6999 78.3597
lradius 61.5659
lwrist 20.1131
lhand -27.044 -26.4618
lfingers 7.12502
lthumb -0.462617 3.51741
rfemur -27.7674 -6.94293 7.03576
rtibia 30.5228
rfoot -14.1338 -5.44366
rtoes 4.70257
lfemur 10.2244 -0.161127 -32.8815
ltibia 1.40038
lfoot -15.0275 5.06176
ltoes -22.5376
191
root 0.583889 17.1824 0.121477 452.78 77.9491 449.015
lowerback 10.556 -0.13279 -16.528
upperback 5.93626 -1.20725 -3.87838
thorax 0.805247 -0.759999 5.21648
lowerneck -24.4173 2.35095 2.93157
upperneck 29.2989 2.43535 0.382039
head 14.1497 1.55352 0.150925
rclavicle -9.74045e-015 -3.33958e-014
rhumerus -67.6216 30.4308 -96.892
rradius 59.1289
rwrist -27.7925
rhand -31.1748 -33.8934
rfingers 7.12502
rthumb -4.45194 -63.8266
lclavicle -9.74045e-015 -3.33958e-014
lhumerus -11.2642 -32.5551 76.9251
lradius 63.409
lwrist 19.4255
lhand -27.2626 -26.284
lfingers 7.12502
lthumb -0.673707 3.69466
rfemur -28.3841 -7.33067 6.89061
rtibia 27.8444
rfoot -13.236 -5.40522
rtoes 6.03509
lfemur 11.143 0.704317 -32.5877
ltibia 0.709531
lfoot -15.247 3.58464
ltoes -22.1714
192
root 0.839551 17.1276 0.114519 455.184 77.7769 451.161
lowerback 10.1785 -0.431693 -16.7549
upperback 5.82002 -1.57015 -3.6775
thorax 0.981134 -0.963508 5.57755
lowerneck -24.396 2.48763 3.2159
upperneck 29.3243 2.60155 0.135386
head 14.1681 1.62074 0.0350858
rclavicle 2.52457e-014 3.06128e-014
rhumerus -69.5377 31.0926 -96.4365
rradius 59.7714
rwrist -27.8298
rhand -30.5381 -32.5263
rfingers 7.12502
rthumb -3.83708 -62.4715
lclavicle 2.52457e-014 3.06128e-014
lhumerus -10.0847 -33.4074 75.4163
lradius 65.3375
lwrist 18.8408
lhand -27.5595 -26.1321
lfingers 7.12502
lthumb -0.960486 3.84543
rfemur -29.0238 -7.98789 6.7178
rtibia 25.7518
rfoot -12.3617 -4.82813
rtoes 5.24685
lfemur 12.0972 1.48726 -32.4101
ltibia 0.210774
lfoot -15.473 2.19044
ltoes -22.4653
193
root 1.09753 17.0635 0.112752 457.494 77.6153 453.32
lowerback 9.59569 -0.738575 -17.0849
upperback 5.90413 -1.87352 -3.40901
thorax 1.49424 -1.17501 6.04671
lowerneck -24.3905 2.62806 3.42462
upperneck 29.2127 2.80332 -0.135177
head 14.1309 1.68773 -0.0724405
rclavicle 2.78299e-015 -2.14687e-014
rhumerus -70.9895 31.7322 -95.599
rradius 60.4787
rwrist -27.8227
rhand -29.8034 -31.3865
rfingers 7.12502
rthumb -3.12758 -61.3433
lclavicle 2.78299e-015 -2.14687e-014
lhumerus -8.75142 -33.9617 73.7713
lradius 67.4207
lwrist 18.4819
lhand -27.6824 -25.8009
lfingers 7.12502
lthumb -1.0792 4.17612
rfemur -29.6396 -8.72122 6.61067
rtibia 24.1326
rfoot -11.7403 -4.05437
rtoes 4.43225
lfemur 13.0193 1.91739 -32.2068
ltibia 0.0344854
lfoot -15.8344 1.12077
ltoes -23.3983
194
root 1.35351 16.9897 0.116318 460.175 77.4229 455.889
lowerback 9.24436 -1.01232 -17.3206
upperback 5.86938 -2.19051 -3.2121
thorax 1.74918 -1.36528 6.39333
lowerneck -24.3555 2.67836 3.4902
upperneck 29.2339 2.83572 -0.0887233
head 14.1341 1.71651 -0.0586884
rclavicle 2.78299e-014 4.29375e-014
rhumerus -72.4279 31.876 -94.5803
rradius 61.3439
rwrist -27.4818
rhand -28.6726 -30.842
rfingers 7.12502
rthumb -2.03555 -60.8121
lclavicle 2.78299e-014 4.29375e-014
lhumerus -7.60248 -34.5408 72.1189
lradius 69.5625
lwrist 18.4577
lhand -27.5267 -25.4134
lfingers 7.12502
lthumb -0.928778 4.56436
rfemur -30.2931 -9.61175 6.57812
rtibia 23.5714
rfoot -12.0589 -3.43301
rtoes 2.79151
lfemur 13.7004 1.88183 -32.0796
ltibia 0.411716
lfoot -16.4254 0.282162
ltoes -23.4851
195
root 1.61337 16.9086 0.11774 462.478 77.0952 458.198
lowerback 9.04354 -1.25059 -17.5812
upperback 5.80831 -2.49247 -3.10614
thorax 1.8908 -1.53479 6.65712
lowerneck -24.2434 2.70233 3.72355
upperneck 29.2443 2.79841 -0.137034
head 14.1203 1.72178 -0.125733
rclavicle -5.06901e-015 -8.46823e-014
rhumerus -73.8309 32.0549 -93.7155
rradius 62.0244
rwrist -27.2462
rhand -27.4859 -30.5098
rfingers 7.12502
rthumb -0.889406 -60.4877
lclavicle -5.06901e-015 -8.46823e-014
lhumerus -6.58637 -35.0471 70.5357
lradius 71.5086
lwrist 18.2002
lhand -27.6089 -25.3679
lfingers 7.12502
lthumb -1.00815 4.60944
rfemur -30.8402 -10.4891 6.37459
rtibia 23.3543
rfoot -12.451 -3.07949
rtoes 2.18129
lfemur 14.3343 1.43368 -32.2798
ltibia 1.23614
lfoot -17.3777 -0.386828
ltoes -22.8567
196
root 1.87519 16.8225 0.118744 463.93 76.8446 459.897
lowerback 8.93422 -1.4734 -17.8152
upperback 5.87478 -2.76827 -2.99829
thorax 2.11889 -1.70219 6.90422
lowerneck -24.1445 2.80113 4.18775
upperneck 29.2089 2.88813 -0.527504
head 14.1031 1.75573 -0.345883
rclavicle 2.28602e-014 1.03368e-014
rhumerus -74.9455 32.5485 -93.031
rradius 62.3485
rwrist -27.0229
rhand -26.5529 -30.0733
rfingers 7.12502
rthumb 0.0116971 -60.0531
lclavicle 2.28602e-014 1.03368e-014
lhumerus -5.76279 -35.2018 69.0343
lradius 73.3295
lwrist 17.6205
lhand -28.0608 -25.754
lfingers 7.12502
lthumb -1.44459 4.22084
rfemur -31.1913 -10.9267 6.12903
rtibia 23.7088
rfoot -12.158 -3.01136
rtoes 2.94633
lfemur 15.2023 0.832107 -32.5198
ltibia 2.1278
lfoot -18.3407 -0.555294
ltoes -23.899
197
root 2.13332 16.7286 0.115553 464.354 77.0116 460.744
lowerback 8.76802 -1.62754 -17.6683
upperback 6.12196 -2.89283 -2.82798
thorax 2.51503 -1.80882 6.99679
lowerneck -23.8771 2.90711 4.61341
upperneck 28.9263 2.9915 -0.881583
head 13.9435 1.79313 -0.545664
rclavicle 4.87022e-014 3.61788e-014
rhumerus -75.59 32.9786 -92.1936
rradius 62.4856
rwrist -26.5678
rhand -25.8384 -29.6009
rfingers 7.12502
rthumb 0.701846 -59.5795
lclavicle 4.87022e-014 3.61788e-014
lhumerus -4.92957 -35.1806 67.5538
lradius 75.0467
lwrist 17.2896
lhand -28.8553 -26.2772
lfingers 7.12502
lthumb -2.21195 3.69111
rfemur -31.4643 -10.8293 6.2735
rtibia 24.5943
rfoot -11.8092 -3.13514
rtoes 3.91858
lfemur 16.2884 0.00401786 -32.5755
ltibia 2.94084
lfoot -19.0908 0.0422888
ltoes -25.0393
198
root 2.40105 16.6314 0.119745 466.498 77.0841 463.471
lowerback 9.05442 -1.74767 -17.3205
upperback 6.23256 -3.07254 -2.75297
thorax 2.49743 -1.892 6.90577
lowerneck -23.5093 2.8853 4.95974
upperneck 28.8124 2.85033 -0.895862
head 13.8211 1.77238 -0.640513
rclavicle -2.75317e-014 -4.29375e-014
rhumerus -76.3448 32.8069 -91.4463
rradius 62.5511
rwrist -26.0428
rhand -25.3499 -29.4262
rfingers 7.12502
rthumb 1.17364 -59.4027
lclavicle -2.75317e-014 -4.29375e-014
lhumerus -4.49096 -35.6071 66.3348
lradius 76.7268
lwrist 17.3296
lhand -29.786 -26.7906
lfingers 7.12502
lthumb -3.1108 3.16648
rfemur -31.0502 -10.6969 6.20093
rtibia 25.3191
rfoot -11.2674 -3.74605
rtoes 3.74111
lfemur 17.4425 -1.08343 -32.6011
ltibia 4.05514
lfoot -19.7801 0.333016
ltoes -25.0161
